<?xml version="1.0" encoding="UTF-8" standalone="no"?>
<!-- Uploaded to: SVG Repo, www.svgrepo.com, Generator: SVG Repo Mixer Tools -->

<svg
   width="256"
   height="256"
   viewBox="0 0 256 256"
   fill="none"
   version="1.1"
   id="svg1"
   sodipodi:docname="landing-page.svg"
   inkscape:version="1.4.4 (dcaf3e7d9e, 2026-05-05)"
   xml:space="preserve"
   xmlns:inkscape="http://www.inkscape.org/namespaces/inkscape"
   xmlns:sodipodi="http://sodipodi.sourceforge.net/DTD/sodipodi-0.dtd"
   xmlns="http://www.w3.org/2000/svg"
   xmlns:svg="http://www.w3.org/2000/svg"><defs
     id="defs1" /><sodipodi:namedview
     id="namedview1"
     pagecolor="#ffffff"
     bordercolor="#ffffff"
     borderopacity="1"
     inkscape:showpageshadow="0"
     inkscape:pageopacity="0"
     inkscape:pagecheckerboard="1"
     inkscape:deskcolor="#d1d1d1"
     inkscape:zoom="0.57875"
     inkscape:cx="77.75378"
     inkscape:cy="-6.0475162"
     inkscape:window-width="1920"
     inkscape:window-height="988"
     inkscape:window-x="720"
     inkscape:window-y="0"
     inkscape:window-maximized="1"
     inkscape:current-layer="svg1" /><g
     id="g1"
     transform="matrix(0.66673683,0,0,0.66673683,42.656906,66.041345)"
     style="stroke-width:1.49985"><path
       fill-rule="evenodd"
       clip-rule="evenodd"
       d="m 102.72773,203.36578 c 2.01149,3.77022 4.02578,7.16751 5.95122,10.17784 -20.456797,-4.60025 -38.207685,-16.35047 -50.490764,-32.48817 8.106612,-4.56518 18.489501,-9.29754 30.97167,-12.76029 3.547629,13.91415 8.552609,25.66671 13.567874,35.07062 z m 15.47321,-8.25239 c -4.35709,-8.16822 -8.72352,-18.36944 -11.86946,-30.45635 6.77236,-1.00539 14.00183,-1.58524 21.66969,-1.58524 7.66669,0 14.89616,0.57985 21.66736,1.58407 -3.14594,12.08808 -7.51238,22.2893 -11.86947,30.45752 -3.49315,6.55024 -6.97344,11.77945 -9.79906,15.60578 -2.82562,-3.82633 -6.30591,-9.05554 -9.79906,-15.60578 z M 101.69615,128 c 0,6.82848 0.45944,13.30975 1.2696,19.42861 7.81283,-1.19829 16.16576,-1.89271 25.03542,-1.89271 8.86849,0 17.22142,0.69325 25.03308,1.89271 0.81016,-6.12003 1.2696,-12.60013 1.2696,-19.42861 0,-6.82848 -0.45944,-13.30858 -1.2696,-19.42861 -7.81166,1.19829 -16.16459,1.89271 -25.03308,1.89271 -8.86966,0 -17.22259,-0.69442 -25.03542,-1.89271 -0.81016,6.11886 -1.2696,12.60013 -1.2696,19.42861 z M 85.760463,104.95549 c -1.018367,7.23648 -1.600209,14.92422 -1.600209,23.04451 0,8.12029 0.581841,15.80803 1.600209,23.04451 -14.887978,3.99701 -27.216415,9.63305 -36.751035,15.05632 C 43.441665,154.57975 40.320509,141.65462 40.320509,128 c 0,-13.65462 3.121156,-26.57928 8.688802,-38.101065 9.533567,5.422567 21.862239,11.059075 36.751152,15.056555 z M 106.33148,91.343542 c 6.77236,1.005042 14.00183,1.584661 21.66969,1.584661 7.66669,0 14.89616,-0.579503 21.66736,-1.584427 C 146.52259,79.256632 142.15615,69.055182 137.79906,60.886609 134.30591,54.336834 130.82562,49.106694 128,45.281062 c -2.82562,3.825632 -6.30591,9.055772 -9.79906,15.605313 -4.35709,8.168573 -8.72352,18.370023 -11.86946,30.457167 z m 63.90782,13.613118 c 1.01825,7.23648 1.60045,14.92422 1.60045,23.04334 0,8.12029 -0.5822,15.80686 -1.60045,23.04334 14.88798,3.99818 27.21689,9.63422 36.75174,15.05749 5.56706,-11.52225 8.68845,-24.44738 8.68845,-38.10083 0,-13.65345 -3.12139,-26.57893 -8.68845,-38.100479 -9.53368,5.422567 -21.86259,11.058959 -36.75174,15.057139 z m 27.57228,-30.011169 c -8.10743,4.565529 -18.48985,9.297181 -30.97073,12.760288 -3.5481,-13.914619 -8.55285,-25.667763 -13.56811,-35.07133 -2.01196,-3.770802 -4.02625,-7.167155 -5.95169,-10.178069 20.45738,4.600601 38.20839,16.351173 50.49053,32.489111 z M 89.159739,87.705428 C 76.678387,84.242205 66.29585,79.510553 58.188302,74.944906 70.471264,58.807319 88.222152,47.056981 108.67778,42.45638 c -1.92427,3.010914 -3.93856,6.40715 -5.95017,10.177835 -5.015146,9.403568 -10.020125,21.156594 -13.567871,35.071213 z m 77.681111,80.588562 c -3.5481,13.91532 -8.55285,25.66788 -13.56811,35.07179 -2.01196,3.77022 -4.02625,7.16751 -5.95169,10.17784 20.45738,-4.60025 38.20839,-16.35164 50.4917,-32.48934 -8.10743,-4.56518 -18.48985,-9.29637 -30.9719,-12.76029 z M 128,233.21539 c 58.10929,0 105.21539,-47.1061 105.21539,-105.21539 C 233.21539,69.891176 186.10929,22.78461 128,22.78461 69.891176,22.78461 22.78461,69.891176 22.78461,128 c 0,58.10929 47.106566,105.21539 105.21539,105.21539 z"
       fill="#080341"
       id="path1"
       style="stroke-width:1.49985" /></g><g
     id="g38"
     transform="matrix(0.81908461,0,0,0.81908461,-75.33284,-157.14247)"
     style="stroke-width:1.22088">
	
	
	
	
	
	
	
	
	
	
	
	
	
	<g
   id="g37"
   style="stroke-width:1.22088"
   transform="translate(-4.9682236e-4,-25.256489)">
		
		
		
		
	<g
   style="fill:#000000;stroke-width:1.98512"
   id="g5"
   transform="matrix(7.0287698,0,0,7.0287698,96.53669,261.39008)"><g
     id="g7"
     style="stroke-width:3.02917"
     transform="matrix(0.65533053,0,0,0.65533053,-1.0794609,-6.7302446)">
	<path
   d="m 63.421,2.583 h -57 c -2.209,0 -3.838,1.544 -3.838,3.753 v 57 c 0,2.209 2.629,3.247 4.838,3.247 h 56 c 2.209,0 3.162,-1.038 3.162,-3.247 v -56 c 0,-2.209 -0.953,-4.753 -3.162,-4.753 z m -0.838,4 v 8 h -56 v -8 z m -56,56 v -46 h 56 v 46 z"
   id="path1-3"
   style="stroke-width:3.02917" />
	<path
   d="m 10,11.583 h 2 c 0.553,0 1,-0.447 1,-1 0,-0.553 -0.447,-1 -1,-1 h -2 c -0.553,0 -1,0.447 -1,1 0,0.553 0.447,1 1,1 z"
   id="path2-6"
   style="stroke-width:3.02917" />
	<path
   d="m 16,11.583 h 2 c 0.553,0 1,-0.447 1,-1 0,-0.553 -0.447,-1 -1,-1 h -2 c -0.553,0 -1,0.447 -1,1 0,0.553 0.447,1 1,1 z"
   id="path3-7"
   style="stroke-width:3.02917" />
	<path
   d="m 22,11.583 h 2 c 0.553,0 1,-0.447 1,-1 0,-0.553 -0.447,-1 -1,-1 h -2 c -0.553,0 -1,0.447 -1,1 0,0.553 0.447,1 1,1 z"
   id="path4-5"
   style="stroke-width:3.02917" />
	
	
	
</g></g></g>
</g></svg>
