<?xml version="1.0" encoding="UTF-8" standalone="no"?>
<!-- Uploaded to: SVG Repo, www.svgrepo.com, Generator: SVG Repo Mixer Tools -->

<svg
   width="256"
   height="256"
   viewBox="0 0 256 256"
   fill="none"
   version="1.1"
   id="svg5"
   sodipodi:docname="online-shop.svg"
   xml:space="preserve"
   inkscape:version="1.4.4 (dcaf3e7d9e, 2026-05-05)"
   xmlns:inkscape="http://www.inkscape.org/namespaces/inkscape"
   xmlns:sodipodi="http://sodipodi.sourceforge.net/DTD/sodipodi-0.dtd"
   xmlns="http://www.w3.org/2000/svg"
   xmlns:svg="http://www.w3.org/2000/svg"><defs
     id="defs5" /><sodipodi:namedview
     id="namedview5"
     pagecolor="#ffffff"
     bordercolor="#ffffff"
     borderopacity="1"
     inkscape:showpageshadow="0"
     inkscape:pageopacity="0"
     inkscape:pagecheckerboard="1"
     inkscape:deskcolor="#d1d1d1"
     inkscape:zoom="0.8184761"
     inkscape:cx="177.76939"
     inkscape:cy="186.32187"
     inkscape:window-width="1920"
     inkscape:window-height="988"
     inkscape:window-x="720"
     inkscape:window-y="0"
     inkscape:window-maximized="1"
     inkscape:current-layer="svg5" /><path
     d="M 127.99951,14.777822 H 82.28778 c -12.143529,0 -18.215293,0 -23.094633,2.400956 -4.879441,2.400957 -7.594829,6.724688 -13.025505,15.37223 L 31.99686,61.071107 C 28.722866,67.66035 25.858362,75.426692 31.369502,80.991014 35.066816,84.72387 40.798046,87.12 47.232555,87.12 c 11.151609,0 20.191764,-7.197246 20.191764,-16.076042 0,8.878796 9.040156,16.076042 20.191764,16.076042 11.151609,0 20.191767,-7.197246 20.191767,-16.076042 0,8.878796 9.03975,16.076042 20.19166,16.076042 11.15191,0 20.19176,-7.197246 20.19176,-16.076042 0,8.878796 9.03986,16.076042 20.19177,16.076042 11.15191,0 20.19176,-7.197246 20.19176,-16.076042 0,8.878796 9.03985,16.076042 20.19176,16.076042 6.43512,0 12.16655,-2.39613 15.86366,-6.128986 5.51135,-5.564322 2.64714,-13.330664 -0.62695,-19.919907 L 209.83269,32.551008 c -5.43058,-8.647542 -8.14637,-12.971273 -13.02571,-15.37223 -4.87934,-2.400956 -10.951,-2.400956 -23.09433,-2.400956 h -5.3286"
     stroke="#1c274c"
     stroke-width="1.5"
     stroke-linecap="round"
     stroke-linejoin="round"
     id="path5"
     style="stroke-width:14;stroke-dasharray:none" /><g
     style="fill:#000000;stroke-width:3.25195"
     id="g5"
     transform="matrix(3.5143849,0,0,3.5143849,52.146097,118.0668)"><g
       id="g7"
       style="stroke-width:4.9623"
       transform="matrix(0.65533053,0,0,0.65533053,-1.0794609,-6.7302446)">
	<path
   d="m 63.421,2.583 h -57 c -2.209,0 -3.838,1.544 -3.838,3.753 v 57 c 0,2.209 2.629,3.247 4.838,3.247 h 56 c 2.209,0 3.162,-1.038 3.162,-3.247 v -56 c 0,-2.209 -0.953,-4.753 -3.162,-4.753 z m -0.838,4 v 8 h -56 v -8 z m -56,56 v -46 h 56 v 46 z"
   id="path1-3"
   style="stroke-width:4.9623" />
	<path
   d="m 10,11.583 h 2 c 0.553,0 1,-0.447 1,-1 0,-0.553 -0.447,-1 -1,-1 h -2 c -0.553,0 -1,0.447 -1,1 0,0.553 0.447,1 1,1 z"
   id="path2-6"
   style="stroke-width:4.9623" />
	<path
   d="m 16,11.583 h 2 c 0.553,0 1,-0.447 1,-1 0,-0.553 -0.447,-1 -1,-1 h -2 c -0.553,0 -1,0.447 -1,1 0,0.553 0.447,1 1,1 z"
   id="path3-7"
   style="stroke-width:4.9623" />
	<path
   d="m 22,11.583 h 2 c 0.553,0 1,-0.447 1,-1 0,-0.553 -0.447,-1 -1,-1 h -2 c -0.553,0 -1,0.447 -1,1 0,0.553 0.447,1 1,1 z"
   id="path4-5"
   style="stroke-width:4.9623" />
	<path
   d="m 26.583,21.583 c 0,-0.552 -0.448,-1 -1,-1 h -14 c -0.552,0 -1,0.448 -1,1 v 26 c 0,0.553 0.448,1 1,1 h 14 c 0.552,0 1,-0.447 1,-1 z m -2,22.371 -4.672,-8.677 4.672,-8.677 z m -0.499,2.629 H 13.599 l 5.243,-9.736 z M 18.842,32.875 13.3,22.583 h 11.083 z m -1.07,2.402 -5.189,9.638 V 25.641 Z"
   id="path5-3"
   style="stroke-width:4.9623" />
	<path
   d="m 59.583,21.583 c 0,-0.552 -0.447,-1 -1,-1 h -28 c -0.552,0 -1,0.448 -1,1 v 26 c 0,0.553 0.448,1 1,1 h 28 c 0.553,0 1,-0.447 1,-1 z m -28,2.289 11.999,11.345 -11.999,11.14 z m 1.889,-1.289 H 56.738 L 45,33.482 Z M 44.988,36.129 56.045,46.583 H 33.729 Z m 1.418,-0.9 11.177,-10.377 v 20.944 z"
   id="path6"
   style="stroke-width:4.9623" />
	<path
   d="m 59.583,52.583 c 0,-0.553 -0.447,-1 -1,-1 h -47 c -0.552,0 -1,0.447 -1,1 v 7 c 0,0.553 0.448,1 1,1 h 47 c 0.553,0 1,-0.447 1,-1 z m -2,6 h -45 v -5 h 45 z"
   id="path7"
   style="stroke-width:4.9623" />
</g></g></svg>
