<?xml version="1.0" encoding="UTF-8" standalone="no"?>
<!-- Created with Inkscape (http://www.inkscape.org/) -->

<svg
   inkscape:export-ydpi="90.000000"
   inkscape:export-xdpi="90.000000"
   width="256"
   height="256"
   id="svg11300"
   sodipodi:version="0.32"
   inkscape:version="1.4.4 (dcaf3e7d9e, 2026-05-05)"
   sodipodi:docname="ardour.svg"
   inkscape:output_extension="org.inkscape.output.svg.inkscape"
   version="1.0"
   style="display:inline;enable-background:new"
   inkscape:export-filename="/home/sam/moka-next-template.png"
   xmlns:inkscape="http://www.inkscape.org/namespaces/inkscape"
   xmlns:sodipodi="http://sodipodi.sourceforge.net/DTD/sodipodi-0.dtd"
   xmlns:xlink="http://www.w3.org/1999/xlink"
   xmlns="http://www.w3.org/2000/svg"
   xmlns:svg="http://www.w3.org/2000/svg"
   xmlns:rdf="http://www.w3.org/1999/02/22-rdf-syntax-ns#"
   xmlns:cc="http://creativecommons.org/ns#"
   xmlns:dc="http://purl.org/dc/elements/1.1/">
  <sodipodi:namedview
     stroke="#ef2929"
     fill="#f57900"
     id="base"
     pagecolor="#ffffff"
     bordercolor="#666666"
     borderopacity="0.25490196"
     inkscape:pageopacity="0"
     inkscape:pageshadow="2"
     inkscape:zoom="0.5"
     inkscape:cx="160"
     inkscape:cy="109"
     inkscape:current-layer="layer1"
     showgrid="false"
     inkscape:grid-bbox="true"
     inkscape:document-units="px"
     inkscape:showpageshadow="false"
     inkscape:window-width="1920"
     inkscape:window-height="988"
     inkscape:window-x="0"
     inkscape:window-y="0"
     width="400px"
     height="300px"
     inkscape:snap-nodes="true"
     inkscape:snap-bbox="true"
     gridtolerance="10000"
     inkscape:object-nodes="true"
     inkscape:snap-grids="true"
     showguides="true"
     inkscape:guide-bbox="true"
     inkscape:window-maximized="1"
     inkscape:bbox-nodes="true"
     inkscape:bbox-paths="true"
     inkscape:snap-bbox-edge-midpoints="true"
     inkscape:snap-bbox-midpoints="true"
     inkscape:pagecheckerboard="1"
     inkscape:deskcolor="#d1d1d1">
    <inkscape:grid
       spacingy="1px"
       spacingx="1px"
       id="grid5883"
       type="xygrid"
       enabled="true"
       visible="true"
       empspacing="4"
       snapvisiblegridlinesonly="true"
       dotted="false"
       color="#000000"
       opacity="0.1254902"
       empcolor="#203ef3"
       empopacity="0.36470588"
       originx="0"
       originy="0"
       units="px" />
    <inkscape:grid
       type="xygrid"
       id="grid11592"
       empspacing="8"
       visible="true"
       enabled="false"
       spacingx="0.5px"
       spacingy="0.5px"
       color="#ff0000"
       opacity="0.1254902"
       empcolor="#ff0000"
       empopacity="0.25098039"
       snapvisiblegridlinesonly="true"
       dotted="true"
       originx="0"
       originy="0"
       units="px" />
  </sodipodi:namedview>
  <defs
     id="defs3">
    <linearGradient
       inkscape:collect="always"
       xlink:href="#outerBackgroundGradient-9"
       id="linearGradient4254"
       x1="35"
       y1="156"
       x2="253"
       y2="156"
       gradientUnits="userSpaceOnUse"
       gradientTransform="rotate(-90,144,156)" />
    <linearGradient
       id="outerBackgroundGradient-9">
      <stop
         style="stop-color:#503cc3;stop-opacity:1"
         offset="0"
         id="stop3864-8-6-9" />
      <stop
         style="stop-color:#cc0000;stop-opacity:1"
         offset="1"
         id="stop3866-9-1-42" />
    </linearGradient>
  </defs>
  <metadata
     id="metadata4">
    <rdf:RDF>
      <cc:Work
         rdf:about="">
        <dc:format>image/svg+xml</dc:format>
        <dc:type
           rdf:resource="http://purl.org/dc/dcmitype/StillImage" />
        <dc:creator>
          <cc:Agent>
            <dc:title>Sam Hewitt</dc:title>
          </cc:Agent>
        </dc:creator>
        <dc:source />
        <cc:license
           rdf:resource="" />
        <dc:subject>
          <rdf:Bag />
        </dc:subject>
        <dc:date />
        <dc:rights>
          <cc:Agent>
            <dc:title />
          </cc:Agent>
        </dc:rights>
        <dc:publisher>
          <cc:Agent>
            <dc:title />
          </cc:Agent>
        </dc:publisher>
        <dc:identifier />
        <dc:relation />
        <dc:language />
        <dc:coverage />
        <dc:description />
        <dc:contributor>
          <cc:Agent>
            <dc:title />
          </cc:Agent>
        </dc:contributor>
      </cc:Work>
      <cc:Work
         rdf:about="">
        <dc:format>image/svg+xml</dc:format>
        <dc:type
           rdf:resource="http://purl.org/dc/dcmitype/StillImage" />
      </cc:Work>
    </rdf:RDF>
  </metadata>
  <g
     style="display:inline"
     inkscape:groupmode="layer"
     inkscape:label="Icon"
     id="layer1">
    <g
       id="g1"
       transform="translate(-16,-28.75)">
      <rect
         ry="50"
         y="47"
         x="34"
         height="220"
         width="220"
         id="rect4114"
         style="color:#bebebe;display:inline;overflow:visible;visibility:visible;opacity:0.1;fill:#000000;fill-opacity:1;fill-rule:nonzero;stroke:none;stroke-width:0;marker:none;enable-background:accumulate" />
      <path
         style="color:#bebebe;display:inline;overflow:visible;visibility:visible;fill:url(#linearGradient4254);fill-opacity:1;fill-rule:nonzero;stroke:none;stroke-width:2;marker:none;enable-background:accumulate"
         d="M 84,46.5 C 56.568735,46.5 34.5,68.568732 34.5,96 v 120 c 0,27.43127 22.068735,49.5 49.5,49.5 h 120 c 27.43127,0 49.5,-22.06873 49.5,-49.5 V 96 C 253.5,68.568732 231.43127,46.5 204,46.5 Z"
         id="path4200" />
      <path
         inkscape:export-ydpi="40.39333"
         inkscape:export-xdpi="40.39333"
         inkscape:export-filename="/mnt/first/logos/ardour/ardour_bw_scale.png"
         id="path3874"
         d="M 144.00001,79.717901 64,218.28236 h 1.384721 c 2.73783,-0.0598 3.825054,-4.54189 5.243479,-4.54189 0.936062,0 2.292922,0.70159 3.231024,0.70159 1.776648,0 2.293982,-9.40287 3.792329,-9.37152 1.498354,0.0313 1.215848,8.03379 4.035968,8.1345 2.924429,0.10445 0.998315,-18.44448 3.858757,-18.44448 2.488231,0 1.239066,15.82546 4.640535,15.92992 3.297027,0.10444 0.744277,-27.41199 4.035967,-27.6787 3.83386,-0.31061 1.40513,25.60876 5.37109,25.60876 3.46214,0 1.17511,-36.39528 4.23906,-36.39528 3.0604,0 2.13497,35.16395 5.25724,34.86855 3.00599,0 0.10276,-42.41474 3.56915,-42.41474 4.43888,0 2.16675,42.09992 5.20727,42.0882 3.42644,-0.0137 0.63364,-46.21857 4.62244,-46.21857 4.13562,0 1.31656,46.66883 4.76507,46.54511 3.63283,-0.13033 -0.17982,-43.72498 3.82184,-43.72498 3.85396,0 1.23155,44.33426 4.59727,44.33426 3.55581,0 -0.25414,-43.76052 4.39943,-43.45546 4.50652,0.29541 1.55077,44.73049 4.77271,44.73049 3.07422,0 1.23865,-38.82035 4.90462,-38.6113 4.29757,0.2451 1.79119,39.81248 4.75874,39.81248 2.75046,0 1.50223,-31.5854 5.14472,-31.5854 3.85008,0 0.95269,32.77862 4.49491,32.63091 3.53916,-0.14757 1.95978,-24.99413 5.40441,-24.99413 3.29709,0 0.56865,27.09782 4.29499,27.09782 3.8733,0 1.91417,-18.97195 5.33217,-18.97195 3.52198,0 1.30421,20.72845 3.99958,20.72845 2.62153,0 1.85595,-13.05945 4.4438,-13.05945 2.5902,0 1.37664,13.8197 3.55755,13.8197 2.25466,0 1.33242,-7.976 3.72154,-7.976 2.39222,0 1.53819,8.61324 3.37294,8.71453 1.62921,0.0899 1.42045,-5.43097 2.92185,-5.43097 1.52749,0 0.88403,6.13754 2.98684,6.13308 2.02896,-0.004 1.40524,-3.39772 2.85018,-3.39772 1.41884,0 1.46268,3.98899 3.13869,3.98899 1.19456,-0.023 2.46174,-1.82357 3.98004,-1.82357 1.99715,0 2.60904,2.22877 7.72384,2.22877 H 224 Z"
         style="display:inline;opacity:0.2;fill:#000000;fill-opacity:1;fill-rule:evenodd;stroke:none;enable-background:new"
         sodipodi:nodetypes="cccsczzczsczcsszszszzsszzzzzzzzzszzzzsccc"
         inkscape:connector-curvature="0" />
      <path
         inkscape:connector-curvature="0"
         sodipodi:nodetypes="cccsczzczsczcsszszszzsszzzzzzzzzszzzzsccc"
         style="display:inline;fill:#ffffff;fill-opacity:1;fill-rule:evenodd;stroke:none;enable-background:new"
         d="M 144.00001,78.717771 64,217.28223 h 1.384721 c 2.73783,-0.0598 3.825054,-4.54189 5.243479,-4.54189 0.936062,0 2.292922,0.70159 3.231024,0.70159 1.776648,0 2.293982,-9.40287 3.792329,-9.37152 1.498354,0.0313 1.215848,8.03379 4.035968,8.1345 2.924429,0.10445 0.998315,-18.44448 3.858757,-18.44448 2.488231,0 1.239066,15.82546 4.640535,15.92992 3.297027,0.10444 0.744277,-27.41199 4.035967,-27.6787 3.83386,-0.31061 1.40513,25.60876 5.37109,25.60876 3.46214,0 1.17511,-36.39528 4.23906,-36.39528 3.0604,0 2.13497,35.16395 5.25724,34.86855 3.00599,0 0.10276,-42.41474 3.56915,-42.41474 4.43888,0 2.16675,42.09992 5.20727,42.0882 3.42644,-0.0137 0.63364,-46.21857 4.62244,-46.21857 4.13562,0 1.31656,46.66883 4.76507,46.54511 3.63283,-0.13033 -0.17982,-43.72498 3.82184,-43.72498 3.85396,0 1.23155,44.33426 4.59727,44.33426 3.55581,0 -0.25414,-43.76052 4.39943,-43.45546 4.50652,0.29541 1.55077,44.73049 4.77271,44.73049 3.07422,0 1.23865,-38.82035 4.90462,-38.6113 4.29757,0.2451 1.79119,39.81248 4.75874,39.81248 2.75046,0 1.50223,-31.5854 5.14472,-31.5854 3.85008,0 0.95269,32.77862 4.49491,32.63091 3.53916,-0.14757 1.95978,-24.99413 5.40441,-24.99413 3.29709,0 0.56865,27.09782 4.29499,27.09782 3.8733,0 1.91417,-18.97195 5.33217,-18.97195 3.52198,0 1.30421,20.72845 3.99958,20.72845 2.62153,0 1.85595,-13.05945 4.4438,-13.05945 2.5902,0 1.37664,13.8197 3.55755,13.8197 2.25466,0 1.33242,-7.976 3.72154,-7.976 2.39222,0 1.53819,8.61324 3.37294,8.71453 1.62921,0.0899 1.42045,-5.43097 2.92185,-5.43097 1.52749,0 0.88403,6.13754 2.98684,6.13308 2.02896,-0.004 1.40524,-3.39772 2.85018,-3.39772 1.41884,0 1.46268,3.98899 3.13869,3.98899 1.19456,-0.023 2.46174,-1.82357 3.98004,-1.82357 1.99715,0 2.60904,2.22877 7.72384,2.22877 H 224 Z"
         id="path1929-72-6"
         inkscape:export-filename="/mnt/first/logos/ardour/ardour_bw_scale.png"
         inkscape:export-xdpi="40.39333"
         inkscape:export-ydpi="40.39333" />
    </g>
  </g>
</svg>
