<?xml version="1.0" encoding="UTF-8" standalone="no"?>
<svg
   width="256"
   height="256"
   viewBox="0 0 256 256"
   fill="none"
   version="1.1"
   id="svg1"
   sodipodi:docname="comfyui.svg"
   inkscape:version="1.4.4 (dcaf3e7d9e, 2026-05-05)"
   xmlns:inkscape="http://www.inkscape.org/namespaces/inkscape"
   xmlns:sodipodi="http://sodipodi.sourceforge.net/DTD/sodipodi-0.dtd"
   xmlns="http://www.w3.org/2000/svg"
   xmlns:svg="http://www.w3.org/2000/svg">
  <defs
     id="defs1" />
  <sodipodi:namedview
     id="namedview1"
     pagecolor="#ffffff"
     bordercolor="#ffffff"
     borderopacity="1"
     inkscape:showpageshadow="0"
     inkscape:pageopacity="0"
     inkscape:pagecheckerboard="1"
     inkscape:deskcolor="#d1d1d1"
     inkscape:zoom="1.6309755"
     inkscape:cx="116.80127"
     inkscape:cy="127.83761"
     inkscape:window-width="1920"
     inkscape:window-height="988"
     inkscape:window-x="0"
     inkscape:window-y="0"
     inkscape:window-maximized="1"
     inkscape:current-layer="svg1" />
  <rect
     width="256"
     height="256"
     fill="#172DD7"
     style="fill:#172dd7;fill-opacity:1;stroke-width:1"
     id="rect1"
     x="0"
     y="0" />
  <path
     d="m 87.131122,211.1168 c -3.857371,0 -6.969599,-1.4336 -8.999314,-4.14446 -2.0864,-2.78522 -2.630095,-6.67368 -1.493028,-10.66514 l 4.566552,-16.03505 c 0.364191,-1.27665 0.110629,-2.65051 -0.683581,-3.71261 -0.794209,-1.05996 -2.036724,-1.68411 -3.356647,-1.68411 H 64.035351 c -3.8592,0 -6.971733,-1.43178 -9.000533,-4.14233 -2.086095,-2.78735 -2.630095,-6.6755 -1.492114,-10.66727 l 15.687923,-54.83581 1.732267,-6.024841 C 73.291275,91.029332 81.782551,84.384913 89.894399,84.384913 h 15.710781 c 1.87459,0 3.52366,-1.249829 4.03992,-3.063771 l 5.19558,-18.239391 c 2.32595,-8.167619 10.81753,-14.812037 18.92938,-14.812037 l 33.59939,-0.05973 24.59733,-0.0021 c 3.85828,0 6.97051,1.431771 8.99931,4.142324 2.0861,2.785219 2.6301,6.673676 1.49303,10.665142 l -7.0336,24.696076 c -2.32503,8.165181 -10.81661,14.807774 -18.92846,14.807774 l -33.67436,0.064 h -15.70529 c -1.87276,0 -3.5197,1.2477 -4.03901,3.05981 l -13.09501,45.73897 c -0.36633,1.27909 -0.11276,2.65722 0.68358,3.71901 0.79421,1.05996 2.03672,1.68381 3.35543,1.68381 l 22.25249,-0.0433 h 24.52419 c 3.85829,0 6.97052,1.43177 8.99932,4.14263 2.08609,2.78705 2.63009,6.67551 1.49211,10.66697 l -7.03329,24.69212 c -2.32534,8.16731 -10.81692,14.8096 -18.92846,14.8096 l -33.67345,0.064 z"
     fill="#F0FF41"
     style="fill:#f0ff41;fill-opacity:1;stroke-width:1"
     id="path1" />
</svg>
