<?xml version="1.0" encoding="UTF-8" standalone="no"?>
<!-- Uploaded to: SVG Repo, www.svgrepo.com, Generator: SVG Repo Mixer Tools -->

<svg
   fill="#000000"
   width="256"
   height="256"
   viewBox="0 0 256 256"
   role="img"
   focusable="false"
   aria-hidden="true"
   version="1.1"
   id="svg1"
   sodipodi:docname="inkscape.svg"
   inkscape:version="1.4.4 (dcaf3e7d9e, 2026-05-05)"
   xmlns:inkscape="http://www.inkscape.org/namespaces/inkscape"
   xmlns:sodipodi="http://sodipodi.sourceforge.net/DTD/sodipodi-0.dtd"
   xmlns="http://www.w3.org/2000/svg"
   xmlns:svg="http://www.w3.org/2000/svg">
  <defs
     id="defs1" />
  <sodipodi:namedview
     id="namedview1"
     pagecolor="#ffffff"
     bordercolor="#ffffff"
     borderopacity="1"
     inkscape:showpageshadow="0"
     inkscape:pageopacity="0"
     inkscape:pagecheckerboard="1"
     inkscape:deskcolor="#d1d1d1"
     inkscape:zoom="0.96875"
     inkscape:cx="81.548387"
     inkscape:cy="186.32258"
     inkscape:window-width="1920"
     inkscape:window-height="988"
     inkscape:window-x="0"
     inkscape:window-y="0"
     inkscape:window-maximized="1"
     inkscape:current-layer="svg1" />
  <path
     d="m 121.63886,244.7184 c -1.69827,-0.23692 -3.34933,-0.73049 -4.63494,-1.34251 -0.80965,-0.39486 -1.30342,-0.75023 -2.04592,-1.50046 -1.22445,-1.22405 -1.63905,-2.05522 -2.15455,-4.30392 -0.86888,-3.83406 -2.09726,-6.31967 -4.13529,-8.33739 -2.58703,-2.56064 -5.52559,-3.74126 -12.50662,-5.02651 -5.956085,-1.08586 -7.972396,-1.73737 -10.241475,-3.24177 -2.387575,-1.59916 -3.49939,-3.59911 -3.096539,-5.603 0.375311,-1.81634 1.599561,-3.58529 4.919312,-7.07977 3.922024,-4.12624 5.081242,-5.60893 5.725035,-7.3305 0.414796,-1.08585 0.474024,-1.83608 0.217171,-2.77781 -0.51351,-2.01771 -2.371761,-3.684 -6.341188,-5.70369 -4.012861,-2.03943 -7.535943,-3.3464 -21.738947,-8.06691 -14.592037,-4.85081 -18.701657,-6.38482 -22.671064,-8.46374 -7.439203,-3.89723 -7.387852,-6.59014 0.197428,-10.75982 0.770166,-0.43434 3.52705,-1.77685 6.118035,-2.98709 6.615691,-3.11146 8.904513,-4.41251 10.47057,-5.95245 1.224448,-1.20431 1.639047,-2.40467 1.184963,-3.48658 -0.395054,-0.94765 -0.750424,-1.24379 -2.182191,-1.87556 -4.455218,-1.95454 -8.957838,-3.23585 -21.845578,-6.21898 -13.810005,-3.19833 -19.922117,-5.57734 -23.737491,-9.23568 -1.718018,-1.63865 -2.786498,-3.35035 -3.2999484,-5.24763 -0.3158827,-1.16483 -0.375111,-3.69191 -0.1974279,-5.14103 0.5332533,-3.10554 2.3125323,-7.01461 5.0160913,-11.06188 0.908366,-1.36226 2.134788,-3.09173 2.735127,-3.85972 1.441618,-1.85582 89.126157,-91.582865 90.818587,-92.943143 3.61,-2.902191 7.5478,-4.688914 12.38812,-5.616825 2.34215,-0.454084 6.49522,-0.552798 9.03091,-0.236913 5.40315,0.690997 10.61276,2.890345 14.90405,6.313745 0.80965,0.651512 88.55937,90.133746 93.64656,95.505756 4.71985,4.98111 7.45695,9.75097 8.10471,14.12005 0.21717,1.52019 0.23691,2.37505 0,3.6919 -1.10599,8.00768 -9.20865,14.63928 -26.03028,21.32419 -4.77513,1.89531 -8.35551,3.1549 -20.63896,7.23376 -14.53673,4.82909 -17.95912,6.10052 -22.54073,8.36502 -2.57717,1.26354 -3.29995,2.07102 -3.30588,3.64649 -0.004,0.92792 0.4148,1.77686 1.38239,2.75412 1.42188,1.44123 3.45399,2.75018 9.54831,6.08671 3.82919,2.09668 5.21355,2.9397 6.87242,4.18942 2.40732,1.81633 3.75218,3.67809 3.89042,5.39769 0,0.69099 0,1.00688 -0.39506,2.16578 -1.38239,4.11242 -3.74625,7.3226 -6.8724,9.30675 -1.95513,1.2438 -4.58951,2.21514 -8.77814,3.22992 -1.46136,0.35537 -3.74625,0.90817 -5.07334,1.22406 -8.35748,2.02758 -14.04895,4.89423 -19.88854,10.01552 -4.00693,3.51421 -4.80871,5.22789 -3.27031,6.97512 0.6912,0.78972 1.69827,1.42149 4.45719,2.80151 3.54482,1.77685 4.57569,2.57643 4.91931,3.80048 0.19743,0.63177 0,1.16483 -0.31588,1.97626 -0.47403,0.92791 -1.10599,1.55968 -2.50408,2.50536 -7.70381,5.21802 -18.73524,9.40349 -28.04065,10.63742 -2.19009,0.29614 -6.56039,0.35537 -8.18173,0.19742 z m 7.03831,-72.68508 c 2.47248,-1.30302 4.47101,-3.4234 4.26365,-4.5211 -0.19743,-0.8292 -0.39505,-0.92791 -3.766,-1.52019 -13.47428,-2.4106 -38.923936,-7.89909 -42.999994,-9.27517 -1.619304,-0.5528 -2.954351,-0.31588 -2.748967,0.45409 0.197428,0.71074 2.589011,2.26252 6.28194,4.04727 8.248874,3.99199 20.719941,8.367 29.126791,10.21689 3.3513,0.73049 5.07137,0.94766 7.30294,0.92792 1.79699,-0.0198 2.01827,0 2.53964,-0.33563 z m 2.25328,-93.705213 c 6.09432,-3.853793 11.11237,-7.004743 11.1499,-7.004743 0,0 3.27426,1.69788 7.19037,3.757054 3.9141,2.06707 7.13506,3.73731 7.15875,3.713619 0,0 3.3671,-20.017218 3.3671,-20.208723 0,0 3.86869,3.004853 8.59644,6.787572 l 8.59645,6.876415 0.29614,-0.375113 c 0.553,-0.690998 0.8294,-1.757109 0.88862,-3.541857 0.19743,-2.606049 -0.43454,-4.850804 -1.59956,-6.590144 -0.43454,-0.671255 -32.08904,-32.956645 -35.8274,-36.561679 -2.76674,-2.667251 -5.86525,-4.298006 -9.87021,-5.194329 -1.08625,-0.236913 -1.61931,-0.276399 -4.16887,-0.276399 -2.54358,0 -3.08667,0 -4.21035,0.276399 -3.26439,0.710741 -6.20295,2.108531 -8.61816,4.09663 -1.00708,0.829197 -24.128496,23.979596 -28.530409,28.563873 -3.679109,3.836025 -7.133091,7.514107 -7.877611,8.390687 -3.983227,4.694836 -4.765259,10.815102 -1.757503,13.816006 0.691195,0.690998 1.856414,1.303025 2.899071,1.520196 0.454281,0 3.833142,0.197427 10.606815,0.197427 l 9.931435,-0.002 6.084452,-10.540677 c 3.34735,-5.798432 6.12395,-10.564343 6.17333,-10.595931 0,0 4.64678,18.145601 7.39575,29.367405 l 0.25666,1.046368 0.39505,-0.236914 c 0.21717,-0.197428 5.38141,-3.387863 11.47575,-7.239682 z M 63.314172,217.36673 c -3.771939,-0.92791 -7.170622,-4.54676 -7.162725,-7.62664 0.0059,-1.89531 1.224448,-3.89723 3.371043,-5.50232 3.941767,-2.95747 10.144715,-4.52504 15.364197,-3.88735 2.656136,0.31588 5.033839,1.34251 6.621614,2.82124 1.125734,1.04637 1.125734,1.00688 0.236913,2.77979 -1.165219,2.3336 -2.63047,4.30985 -4.583585,6.20121 -1.441619,1.38199 -2.014338,1.87556 -3.347331,2.75609 -1.797187,1.20431 -3.708743,2.03548 -5.58879,2.45403 -1.402133,0.31589 -3.647501,0.31589 -4.903498,0.004 z m 141.702088,-2.72648 c -3.20909,-0.75023 -5.39326,-2.57841 -6.14962,-5.15089 -0.67146,-2.28227 0.21717,-4.90411 2.54358,-7.57136 0.96759,-1.1056 1.10599,-1.14509 2.22959,-0.88843 3.53692,0.84894 6.71443,2.66528 8.57471,4.88634 0.92811,1.1056 1.77745,2.84889 1.97483,4.03345 0.19743,1.04637 0,2.13617 -0.37511,2.69687 -0.29614,0.43434 -2.3856,1.44122 -3.64752,1.77685 -1.26393,0.33563 -4.07406,0.45408 -5.14444,0.19743 z m 14.66905,-18.87806 c -7.01854,-0.61202 -12.44735,-2.20527 -12.95885,-3.81825 -0.19743,-0.49357 0.75042,-2.62382 1.73796,-4.08479 2.21577,-3.26349 6.42807,-5.72739 11.25852,-6.5862 1.75751,-0.31589 5.20172,-0.37511 6.8191,-0.19743 2.65417,0.4146 5.26095,1.32277 7.26541,2.57446 1.38239,0.84894 3.35918,2.76794 4.17874,4.04333 0.90837,1.42148 1.46136,2.75215 1.36265,3.301 -0.37511,2.17565 -3.1301,3.69387 -8.06718,4.46384 -1.42188,0.21717 -2.39745,0.2764 -6.01338,0.29615 -2.37374,0.0197 -4.88968,-0.0119 -5.58877,0 z"
     id="path1"
     style="stroke-width:1" />
</svg>
