<?xml version="1.0" encoding="UTF-8" standalone="no"?>
<!-- Uploaded to: SVG Repo, www.svgrepo.com, Generator: SVG Repo Mixer Tools -->

<svg
   fill="#000000"
   version="1.1"
   id="Capa_1"
   width="256"
   height="256"
   viewBox="0 0 256 256"
   xml:space="preserve"
   sodipodi:docname="shader.svg"
   inkscape:version="1.4.4 (dcaf3e7d9e, 2026-05-05)"
   xmlns:inkscape="http://www.inkscape.org/namespaces/inkscape"
   xmlns:sodipodi="http://sodipodi.sourceforge.net/DTD/sodipodi-0.dtd"
   xmlns="http://www.w3.org/2000/svg"
   xmlns:svg="http://www.w3.org/2000/svg"><defs
   id="defs10" /><sodipodi:namedview
   id="namedview10"
   pagecolor="#ffffff"
   bordercolor="#ffffff"
   borderopacity="1"
   inkscape:showpageshadow="0"
   inkscape:pageopacity="0"
   inkscape:pagecheckerboard="1"
   inkscape:deskcolor="#d1d1d1"
   inkscape:zoom="0.68500969"
   inkscape:cx="0.72991668"
   inkscape:cy="88.319919"
   inkscape:window-width="1920"
   inkscape:window-height="988"
   inkscape:window-x="0"
   inkscape:window-y="0"
   inkscape:window-maximized="1"
   inkscape:current-layer="g9" />
<g
   id="g10"
   transform="matrix(1.57167,0,0,1.57167,19.594062,19.594062)"
   style="stroke-width:0.636266">
	<g
   id="g9"
   style="stroke-width:0.636266">
		
		
		
		
		
		
		
		
		
	<path
   style="fill:#000000"
   d="M 62.687425,143.23799 C 53.198003,142.41592 44.802907,140.07264 36.192917,135.84272 21.279679,128.51613 9.357253,116.59285 2.117426,101.76479 -3.146373,90.983875 -5.423392,81.027985 -5.457046,68.646645 -5.477466,61.133285 -5.013563,57.344265 -3.213217,50.319795 3.959304,22.334525 27.50907,0.56911509 55.96183,-4.3716049 c 11.009858,-1.91182 21.011228,-1.50077 32.005508,1.31542 16.558312,4.24141 32.211152,15.2075599 42.161592,29.5377899 6.71657,9.67293 10.97801,20.71932 12.71391,32.95659 0.80888,5.70231 0.74094,14.87402 -0.152,20.51708 -1.75239,11.07444 -5.57698,21.019045 -11.48768,29.869935 -3.37143,5.04849 -5.92023,8.10473 -10.40772,12.47977 -7.02158,6.84563 -14.13501,11.61173 -22.849802,15.30967 -10.90853,4.62882 -23.52003,6.64023 -35.258213,5.62334 z m -23.8116,-26.92904 c 22.329998,-3.20698 42.864283,-14.90051 57.029853,-32.476425 4.414152,-5.47685 7.165042,-9.79411 10.396742,-16.31674 6.01866,-12.14759 8.86619,-23.37148 9.42681,-37.15693 l 0.1971,-4.84656 -2.70977,-2.5881 C 102.35154,12.547025 88.964558,6.5785051 73.617778,5.2692951 63.170374,4.3780451 51.38046,6.5870251 41.685681,11.252165 21.560859,20.936235 8.07632,39.669785 5.490733,61.536385 c -1.406416,11.89421 0.598823,23.86826 5.829185,34.80831 3.328285,6.961585 6.550698,11.575365 12.109797,17.338565 l 3.393193,3.51777 4.361901,-0.20699 c 2.399045,-0.11383 5.860002,-0.42213 7.691016,-0.68509 z"
   id="path1" /></g>
</g>
</svg>
