<?xml version="1.0" encoding="UTF-8" standalone="no"?>
<svg
   width="64"
   height="64"
   fill="none"
   viewBox="0 0 64 64"
   version="1.1"
   id="svg7"
   sodipodi:docname="Bootstrap.svg"
   inkscape:version="1.4.4 (dcaf3e7d9e, 2026-05-05)"
   xmlns:inkscape="http://www.inkscape.org/namespaces/inkscape"
   xmlns:sodipodi="http://sodipodi.sourceforge.net/DTD/sodipodi-0.dtd"
   xmlns="http://www.w3.org/2000/svg"
   xmlns:svg="http://www.w3.org/2000/svg">
  <sodipodi:namedview
     id="namedview7"
     pagecolor="#ffffff"
     bordercolor="#ffffff"
     borderopacity="1"
     inkscape:showpageshadow="0"
     inkscape:pageopacity="0"
     inkscape:pagecheckerboard="1"
     inkscape:deskcolor="#d1d1d1"
     inkscape:zoom="1.5136719"
     inkscape:cx="105.04258"
     inkscape:cy="121.22839"
     inkscape:window-width="1920"
     inkscape:window-height="988"
     inkscape:window-x="0"
     inkscape:window-y="0"
     inkscape:window-maximized="1"
     inkscape:current-layer="svg7" />
  <rect
     width="64"
     height="64"
     fill="url(#paint0_linear_158_100)"
     rx="15"
     id="rect1"
     x="0"
     y="0"
     style="fill:url(#paint0_linear_158_100);stroke-width:1" />
  <g
     filter="url(#filter0_d_158_100)"
     id="g2"
     transform="scale(0.25)"
     style="stroke-width:4">
    <path
       fill="url(#paint1_linear_158_100)"
       d="m 131.97,196.157 c 29.676,0 47.559,-14.531 47.559,-38.497 0,-18.117 -12.759,-31.232 -31.706,-33.309 v -0.754 c 13.92,-2.265 24.843,-15.192 24.843,-29.6281 C 172.666,73.3992 156.427,60 131.68,60 H 76 V 196.157 Z M 97.6533,77.2674 H 126.46 c 15.66,0 24.553,6.9823 24.553,19.6261 0,13.4935 -10.343,21.0415 -29.096,21.0415 H 97.6533 Z m 0,101.6226 v -44.819 h 28.6127 c 20.494,0 31.127,7.548 31.127,22.268 0,14.719 -10.343,22.551 -29.87,22.551 z"
       id="path1"
       style="fill:url(#paint1_linear_158_100);stroke-width:4" />
    <path
       stroke="#ffffff"
       stroke-width="8"
       d="m 131.97,196.157 c 29.676,0 47.559,-14.531 47.559,-38.497 0,-18.117 -12.759,-31.232 -31.706,-33.309 v -0.754 c 13.92,-2.265 24.843,-15.192 24.843,-29.6281 C 172.666,73.3992 156.427,60 131.68,60 H 76 V 196.157 Z M 97.6533,77.2674 H 126.46 c 15.66,0 24.553,6.9823 24.553,19.6261 0,13.4935 -10.343,21.0415 -29.096,21.0415 H 97.6533 Z m 0,101.6226 v -44.819 h 28.6127 c 20.494,0 31.127,7.548 31.127,22.268 0,14.719 -10.343,22.551 -29.87,22.551 z"
       id="path2" />
  </g>
  <defs
     id="defs7">
    <filter
       id="filter0_d_158_100"
       width="137.52901"
       height="170.157"
       x="59"
       y="47"
       color-interpolation-filters="sRGB"
       filterUnits="userSpaceOnUse">
      <feFlood
         flood-opacity="0"
         result="BackgroundImageFix"
         id="feFlood2" />
      <feColorMatrix
         in="SourceAlpha"
         result="hardAlpha"
         type="matrix"
         values="0 0 0 0 0 0 0 0 0 0 0 0 0 0 0 0 0 0 127 0"
         id="feColorMatrix2" />
      <feOffset
         dy="4"
         id="feOffset2" />
      <feGaussianBlur
         stdDeviation="8"
         id="feGaussianBlur2" />
      <feColorMatrix
         type="matrix"
         values="0 0 0 0 0 0 0 0 0 0 0 0 0 0 0 0 0 0 0.15 0"
         id="feColorMatrix3" />
      <feBlend
         in2="BackgroundImageFix"
         mode="normal"
         result="effect1_dropShadow_158_100"
         id="feBlend3" />
      <feBlend
         in="SourceGraphic"
         in2="effect1_dropShadow_158_100"
         mode="normal"
         result="shape"
         id="feBlend4" />
    </filter>
    <linearGradient
       id="paint0_linear_158_100"
       x1="0"
       x2="256"
       y1="0"
       y2="256"
       gradientUnits="userSpaceOnUse"
       gradientTransform="scale(0.25)">
      <stop
         stop-color="#9013FE"
         id="stop4" />
      <stop
         offset="1"
         stop-color="#6B11F4"
         id="stop5" />
    </linearGradient>
    <linearGradient
       id="paint1_linear_158_100"
       x1="85.792999"
       x2="148.541"
       y1="68.961998"
       y2="175.084"
       gradientUnits="userSpaceOnUse">
      <stop
         stop-color="#fff"
         id="stop6" />
      <stop
         offset="1"
         stop-color="#F1E5FC"
         id="stop7" />
    </linearGradient>
  </defs>
</svg>
