<?xml version="1.0" encoding="UTF-8" standalone="no"?>
<!-- Uploaded to: SVG Repo, www.svgrepo.com, Generator: SVG Repo Mixer Tools -->

<svg
   fill="#000000"
   width="256"
   height="256"
   viewBox="0 0 256 256"
   role="img"
   version="1.1"
   id="svg1"
   sodipodi:docname="qemu-icon.svg"
   inkscape:version="1.4.4 (dcaf3e7d9e, 2026-05-05)"
   xmlns:inkscape="http://www.inkscape.org/namespaces/inkscape"
   xmlns:sodipodi="http://sodipodi.sourceforge.net/DTD/sodipodi-0.dtd"
   xmlns="http://www.w3.org/2000/svg"
   xmlns:svg="http://www.w3.org/2000/svg"
   xmlns:rdf="http://www.w3.org/1999/02/22-rdf-syntax-ns#"
   xmlns:cc="http://creativecommons.org/ns#"
   xmlns:dc="http://purl.org/dc/elements/1.1/">
  <defs
     id="defs1" />
  <sodipodi:namedview
     id="namedview1"
     pagecolor="#505050"
     bordercolor="#ffffff"
     borderopacity="1"
     inkscape:showpageshadow="0"
     inkscape:pageopacity="0"
     inkscape:pagecheckerboard="1"
     inkscape:deskcolor="#d1d1d1"
     inkscape:zoom="1.1575"
     inkscape:cx="240.17279"
     inkscape:cy="49.24406"
     inkscape:window-width="1912"
     inkscape:window-height="1139"
     inkscape:window-x="720"
     inkscape:window-y="0"
     inkscape:window-maximized="0"
     inkscape:current-layer="svg1" />
  <title
     id="title1">QEMU icon</title>
  <path
     d="M 128.02672,21.45304 C 68.870669,21.45304 20.881689,69.14744 20.881689,128 c 0,58.85255 47.98898,106.54696 107.145031,106.54696 19.36163,0 37.4914,-5.08812 53.15744,-14.01464 l 5.57015,14.01464 h 43.21329 l -16.89791,-41.7672 A 105.73465,105.73465 0 0 0 235.1182,128 c 0,-58.85256 -47.93542,-106.54696 -107.09148,-106.54696 z M 99.595759,39.00258 c 3.552751,3.02609 2.892191,1.76745 7.676811,1.19616 5.44517,-3.54384 7.97137,8.40877 10.23872,1.74067 6.67703,0.86587 13.76469,3.03501 20.08466,5.21309 a 30.769719,30.769719 0 0 1 16.59441,10.06911 l -0.12497,0.0625 3.12428,4.13298 c 0.40169,0.71413 0.73198,1.46396 1.07118,2.21378 1.26757,10.75646 13.21125,10.62256 21.21835,14.5056 6.84663,2.42801 15.08581,6.12359 15.93384,14.38062 -1.72282,-0.37491 -8.39986,-8.22132 -13.65759,-8.98901 a 34.983037,34.983037 0 0 1 -9.7656,-2.27625 L 153.5298,77.83296 v -0.0625 a 27.091992,27.091992 0 0 1 -2.7583,-0.4731 V 77.4134 L 124.64358,74.182 c 0.42847,0.29458 0.89264,0.68734 1.32112,1.07119 l 26.77957,5.22201 v -0.0625 l 1.86564,0.47311 7.48935,1.67819 c 1.4818,0.14283 2.98145,0.38384 4.19547,0.59807 7.6411,2.10667 16.67473,1.73175 22.95008,7.06981 -1.64248,3.14214 -10.80109,1.36576 -15.34469,0.96406 -0.55344,-0.10711 -1.16938,-0.2053 -1.73175,-0.3035 l -0.3035,-0.0625 c -6.21285,-1.0087 -12.59532,-1.07119 -18.57609,0.78553 h -0.0625 a 28.502383,28.502383 0 0 0 -5.9897,2.69581 c -8.64087,5.02563 -19.317,6.84664 -26.48499,14.07713 -7.02518,7.56076 -6.5967,17.96016 -5.39162,27.62758 h 0.29457 v 2.45479 c 0.11605,0.84802 0.24995,1.69603 0.35707,2.51729 3.65987,19.54908 13.38978,37.49138 16.42479,57.23685 0.58023,7.52506 1.81208,17.24604 2.7583,23.36964 -2.73152,-0.81232 -4.2401,-13.05058 -4.85603,-8.98901 A 340.95741,340.95741 0 0 0 98.515659,165.74131 c -7.61433,-8.96223 -15.14831,-18.38863 -24.20873,-25.83335 -6.11466,-4.71321 -4.17761,-13.83611 -4.79354,-20.54885 -2.0531,-8.26596 -0.83909,-16.49621 0.53559,-24.75325 2.79401,-8.59624 3.73129,-17.56739 7.55184,-25.82442 5.82902,-5.18631 5.97184,-14.55023 11.63126,-19.05813 0.83909,0.51774 1.40146,0.75876 1.7853,0.89265 l 0.607,0.0714 h 0.0625 c 0.80338,-0.84802 -7.92675,-9.962 0.17852,-6.35568 0.31244,-4.79355 7.62326,-1.1426 7.73037,-5.32914 z m 34.340321,19.47767 c -2.88326,0.0803 -5.12382,1.16045 -5.7576,2.99038 -1.01762,2.94576 2.43693,6.73953 7.73036,8.56947 5.30236,1.82993 10.42618,0.97298 11.4438,-1.97277 1.01763,-2.94574 -2.42801,-6.802 -7.73037,-8.63194 a 16.442653,16.442653 0 0 0 -5.68619,-0.95514 z"
     id="path1"
     style="stroke-width:1" />
  <metadata
     id="metadata1">
    <rdf:RDF>
      <cc:Work
         rdf:about="">
        <dc:title>QEMU icon</dc:title>
      </cc:Work>
    </rdf:RDF>
  </metadata>
</svg>
